<svg width="22" height="22" viewBox="0 0 22 22" fill="none" xmlns="http://www.w3.org/2000/svg">
<path d="M11.0001 4.62131C12.953 4.62131 14.2704 5.46486 15.0215 6.16975L17.9566 3.30398C16.1539 1.62842 13.8081 0.599976 11.0001 0.599976C6.93258 0.599976 3.41969 2.9342 1.70947 6.33153L5.07214 8.94309C5.91569 6.43553 8.24992 4.62131 11.0001 4.62131Z" fill="#EA4335"/>
<path d="M20.984 11.2311C20.984 10.376 20.9147 9.75197 20.7644 9.10486H11V12.9644H16.7316C16.616 13.9235 15.992 15.368 14.6053 16.3386L17.8871 18.8809C19.8516 17.0666 20.984 14.3973 20.984 11.2311Z" fill="#4285F4"/>
<path d="M5.08365 13.0569C4.8641 12.4098 4.73699 11.7164 4.73699 11C4.73699 10.2835 4.8641 9.59021 5.0721 8.9431L1.70943 6.33154C1.00454 7.74132 0.600098 9.32443 0.600098 11C0.600098 12.6755 1.00454 14.2587 1.70943 15.6684L5.08365 13.0569Z" fill="#FBBC05"/>
<path d="M11.0001 21.4C13.8081 21.4 16.1654 20.4756 17.8872 18.8809L14.6054 16.3387C13.7272 16.9511 12.5485 17.3787 11.0001 17.3787C8.24984 17.3787 5.91561 15.5644 5.08361 13.0569L1.72095 15.6684C3.43117 19.0658 6.9325 21.4 11.0001 21.4Z" fill="#34A853"/>
</svg>
