<svg width="24" height="24" viewBox="0 0 24 24" fill="none" xmlns="http://www.w3.org/2000/svg">
<path fill-rule="evenodd" clip-rule="evenodd" d="M12 0C5.37258 0 0 5.37258 0 12C0 18.6274 5.37258 24 12 24C18.6274 24 24 18.6274 24 12C24 5.37258 18.6274 0 12 0ZM9.36166 5.63866C10.0443 5.60759 10.2625 5.59999 12.0006 5.59999H11.9986C13.7373 5.59999 13.9546 5.60759 14.6373 5.63866C15.3187 5.66986 15.784 5.77773 16.192 5.936C16.6133 6.09933 16.9693 6.318 17.3253 6.67401C17.6813 7.02974 17.9 7.38681 18.064 7.80775C18.2214 8.21469 18.3294 8.67976 18.3614 9.3611C18.392 10.0438 18.4 10.2619 18.4 12.0001C18.4 13.7382 18.392 13.9558 18.3614 14.6385C18.3294 15.3196 18.2214 15.7848 18.064 16.1918C17.9 16.6126 17.6813 16.9697 17.3253 17.3254C16.9697 17.6815 16.6132 17.9007 16.1924 18.0641C15.7852 18.2224 15.3196 18.3303 14.6383 18.3615C13.9556 18.3925 13.7381 18.4001 11.9998 18.4001C10.2618 18.4001 10.0438 18.3925 9.36113 18.3615C8.67992 18.3303 8.21472 18.2224 7.80751 18.0641C7.38684 17.9007 7.02977 17.6815 6.67417 17.3254C6.3183 16.9697 6.09963 16.6126 5.93603 16.1917C5.77789 15.7848 5.67002 15.3197 5.63869 14.6384C5.60776 13.9557 5.60002 13.7382 5.60002 12.0001C5.60002 10.2619 5.60802 10.0436 5.63856 9.36097C5.66922 8.67989 5.77723 8.21469 5.93589 7.80762C6.0999 7.38681 6.31856 7.02974 6.67457 6.67401C7.03031 6.31813 7.38738 6.09947 7.80831 5.936C8.21525 5.77773 8.68032 5.66986 9.36166 5.63866Z" fill="#333333"/>
<path fill-rule="evenodd" clip-rule="evenodd" d="M11.4265 6.75337C11.538 6.7532 11.6579 6.75325 11.7873 6.75331L12.0006 6.75337C13.7094 6.75337 13.912 6.7595 14.5868 6.79017C15.2108 6.8187 15.5495 6.92297 15.7751 7.01057C16.0737 7.12657 16.2867 7.26524 16.5105 7.48924C16.7345 7.71325 16.8732 7.92658 16.9895 8.22525C17.0771 8.45059 17.1815 8.78926 17.2099 9.41326C17.2405 10.0879 17.2472 10.2906 17.2472 11.9986C17.2472 13.7066 17.2405 13.9093 17.2099 14.584C17.1813 15.208 17.0771 15.5467 16.9895 15.772C16.8735 16.0707 16.7345 16.2833 16.5105 16.5072C16.2865 16.7312 16.0739 16.8699 15.7751 16.9859C15.5497 17.0739 15.2108 17.1779 14.5868 17.2064C13.9121 17.2371 13.7094 17.2437 12.0006 17.2437C10.2917 17.2437 10.0891 17.2371 9.41447 17.2064C8.79046 17.1776 8.45179 17.0733 8.22605 16.9857C7.92739 16.8697 7.71405 16.7311 7.49005 16.5071C7.26604 16.2831 7.12738 16.0703 7.01111 15.7715C6.92351 15.5461 6.81911 15.2075 6.79071 14.5835C6.76004 13.9088 6.75391 13.7061 6.75391 11.997C6.75391 10.2879 6.76004 10.0863 6.79071 9.41166C6.81924 8.78766 6.92351 8.44899 7.01111 8.22339C7.12711 7.92472 7.26604 7.71138 7.49005 7.48738C7.71405 7.26338 7.92739 7.12471 8.22605 7.00844C8.45166 6.92044 8.79046 6.81644 9.41447 6.78777C10.0049 6.7611 10.2337 6.7531 11.4265 6.75177V6.75337ZM15.4169 7.81603C14.9929 7.81603 14.6489 8.15964 14.6489 8.58377C14.6489 9.00778 14.9929 9.35178 15.4169 9.35178C15.8409 9.35178 16.1849 9.00778 16.1849 8.58377C16.1849 8.15977 15.8409 7.81577 15.4169 7.81577V7.81603ZM8.71393 12.0001C8.71393 10.1851 10.1855 8.71347 12.0005 8.7134C13.8156 8.7134 15.2868 10.185 15.2868 12.0001C15.2868 13.8152 13.8157 15.2861 12.0006 15.2861C10.1855 15.2861 8.71393 13.8152 8.71393 12.0001Z" fill="#333333"/>
<path d="M12.0005 9.8667C13.1787 9.8667 14.1339 10.8218 14.1339 12.0001C14.1339 13.1782 13.1787 14.1334 12.0005 14.1334C10.8223 14.1334 9.86719 13.1782 9.86719 12.0001C9.86719 10.8218 10.8223 9.8667 12.0005 9.8667Z" fill="#333333"/>
</svg>
